# xmcd
#
# Track frame offsets: 
#        150
#        11842
#        32844
#        54742
#        79730
#        114379
#        136963
#        156171
#        171433
#        195722
#        212889
#        235024
#        283888
#        314878
#
# Disc length: 4766 seconds
#
# Revision: 0
# Processed by: cddbd v1.5.2PL0 Copyright (c) Steve Scherf et al.
# Submitted via: ExactAudioCopy v0.99pb5
#
DISCID=d1129c0e
DTITLE=Jeff Beck Group  - Dallas-1968  FLAC
DYEAR=1900
DGENRE=
TTITLE0=You shook Me
TTITLE1=Let me love you
TTITLE2=I Cant hold out
TTITLE3=Jeffs Boogie
TTITLE4=Sweet little Angel
TTITLE5=Shapes Of things
TTITLE6=Hi ho silver lining
TTITLE7=Becks Bolero
TTITLE8=Rock my Plimsoul
TTITLE9=Oh Pretty woman
TTITLE10=Morning dew
TTITLE11=Mothers Old Rice pudding
TTITLE12=The sun Is shining
TTITLE13=I Aint superstitious
EXTD=
EXTT0=
EXTT1=
EXTT2=
EXTT3=
EXTT4=
EXTT5=
EXTT6=
EXTT7=
EXTT8=
EXTT9=
EXTT10=
EXTT11=
EXTT12=
EXTT13=
PLAYORDER=
